<svg width="153" height="48" fill="none" xmlns="http://www.w3.org/2000/svg"><rect x="1" y="1" width="151" height="46" rx="23" stroke="#fff" stroke-width="2"/><path d="M37.22 30.162c-1.38 0-2.472-.396-3.276-1.188-.804-.804-1.206-1.92-1.206-3.348 0-.96.198-1.806.594-2.538a4.286 4.286 0 0 1 1.656-1.71c.708-.408 1.524-.612 2.448-.612.768 0 1.44.15 2.016.45.576.3 1.044.768 1.404 1.404l-1.566 1.188c-.228-.384-.492-.66-.792-.828-.288-.168-.642-.252-1.062-.252-.708 0-1.29.264-1.746.792-.444.528-.666 1.224-.666 2.088 0 .84.198 1.488.594 1.944.408.444.99.666 1.746.666.396 0 .762-.09 1.098-.27.348-.18.636-.462.864-.846l1.53 1.224c-.408.66-.924 1.134-1.548 1.422-.624.276-1.32.414-2.088.414Zm8.741-9.396c1.356 0 2.418.408 3.186 1.224.78.804 1.17 1.896 1.17 3.276 0 .936-.198 1.776-.594 2.52a4.41 4.41 0 0 1-1.638 1.746c-.708.42-1.53.63-2.466.63-1.356 0-2.424-.402-3.204-1.206-.768-.804-1.152-1.902-1.152-3.294 0-.936.192-1.77.576-2.502a4.42 4.42 0 0 1 1.638-1.746c.708-.432 1.536-.648 2.484-.648Zm-.27 7.47c.708 0 1.278-.27 1.71-.81.432-.54.648-1.26.648-2.16 0-.816-.192-1.446-.576-1.89-.372-.444-.888-.666-1.548-.666-.732 0-1.314.27-1.746.81-.432.54-.648 1.254-.648 2.142 0 .816.186 1.452.558 1.908.384.444.918.666 1.602.666ZM52.225 30v-9.09h2.196l-.108 2.286c.348-.78.822-1.38 1.422-1.8a3.49 3.49 0 0 1 2.052-.63c1.02 0 1.788.354 2.304 1.062.528.696.786 1.698.774 3.006L60.829 30h-2.196l.036-4.986c.012-.708-.102-1.248-.342-1.62-.228-.384-.6-.576-1.116-.576-.396 0-.762.114-1.098.342-.336.228-.63.618-.882 1.17-.252.54-.45 1.278-.594 2.214-.144.924-.222 2.076-.234 3.456h-2.178Zm14.697.162c-1.092 0-1.944-.3-2.556-.9-.6-.6-.894-1.386-.882-2.358l.072-4.158h-1.548V20.91h1.584l.018-1.872h2.196l-.036 1.872h2.97v1.836h-2.988l-.054 3.924c-.012.492.108.882.36 1.17.264.276.654.414 1.17.414.276 0 .534-.036.774-.108.24-.072.492-.204.756-.396l.648 1.692c-.276.24-.63.42-1.062.54-.432.12-.906.18-1.422.18Zm11.764-9.216V30h-2.233l.072-1.584c-.324.552-.75.984-1.278 1.296-.516.3-1.11.45-1.781.45-.792 0-1.465-.18-2.016-.54a3.523 3.523 0 0 1-1.26-1.53c-.288-.648-.433-1.392-.433-2.232 0-1.008.198-1.89.594-2.646.397-.768.936-1.368 1.62-1.8a4.347 4.347 0 0 1 2.34-.648c.576 0 1.086.126 1.53.378.445.24.787.564 1.027.972l.216-1.17h1.602Zm-4.213 1.764c-.743 0-1.338.282-1.781.846-.444.564-.666 1.302-.666 2.214 0 .78.168 1.386.504 1.818.335.432.797.648 1.385.648.48 0 .912-.138 1.296-.414.397-.276.709-.66.936-1.152.228-.492.343-1.056.343-1.692 0-.708-.18-1.26-.54-1.656-.36-.408-.853-.612-1.477-.612Zm10.595 7.452c-1.38 0-2.472-.396-3.276-1.188-.804-.804-1.206-1.92-1.206-3.348 0-.96.198-1.806.594-2.538a4.286 4.286 0 0 1 1.656-1.71c.708-.408 1.524-.612 2.448-.612.768 0 1.44.15 2.016.45.576.3 1.044.768 1.404 1.404l-1.566 1.188c-.228-.384-.492-.66-.792-.828-.288-.168-.642-.252-1.062-.252-.708 0-1.29.264-1.746.792-.444.528-.666 1.224-.666 2.088 0 .84.198 1.488.594 1.944.408.444.99.666 1.746.666.396 0 .762-.09 1.098-.27.348-.18.636-.462.864-.846l1.53 1.224c-.408.66-.924 1.134-1.548 1.422-.624.276-1.32.414-2.088.414Zm8.767 0c-1.092 0-1.944-.3-2.556-.9-.6-.6-.894-1.386-.882-2.358l.072-4.158H88.92V20.91h1.583l.018-1.872h2.197l-.036 1.872h2.97v1.836h-2.989l-.053 3.924c-.013.492.108.882.36 1.17.263.276.653.414 1.17.414.275 0 .533-.036.773-.108.24-.072.492-.204.757-.396l.647 1.692c-.275.24-.63.42-1.061.54-.433.12-.907.18-1.422.18Zm10.717 0c-1.008 0-1.77-.342-2.286-1.026-.504-.684-.75-1.632-.738-2.844l.036-5.382h2.196l-.036 5.184c-.012.624.096 1.116.324 1.476.228.36.588.54 1.08.54.384 0 .738-.114 1.062-.342.336-.228.624-.612.864-1.152.24-.552.426-1.29.558-2.214.144-.936.216-2.1.216-3.492h2.124V30h-2.214l.126-2.07c-.36.732-.828 1.29-1.404 1.674-.564.372-1.2.558-1.908.558Zm10.923 0c-1.248 0-2.202-.234-2.862-.702-.66-.48-1.044-1.146-1.152-1.998l1.854-.45c.072.456.282.81.63 1.062.348.24.846.36 1.494.36.528 0 .924-.084 1.188-.252.276-.168.414-.396.414-.684 0-.288-.15-.51-.45-.666-.288-.156-.738-.294-1.35-.414a9.179 9.179 0 0 1-1.764-.504c-.48-.204-.852-.48-1.116-.828-.252-.36-.378-.828-.378-1.404 0-.552.156-1.044.468-1.476a3.152 3.152 0 0 1 1.278-1.044c.552-.264 1.182-.396 1.89-.396.948 0 1.722.222 2.322.666.612.444.978 1.014 1.098 1.71l-1.818.486a1.328 1.328 0 0 0-.54-.81c-.276-.204-.648-.306-1.116-.306-.468 0-.828.096-1.08.288a.887.887 0 0 0-.36.72c0 .288.138.516.414.684.288.156.774.306 1.458.45a8.47 8.47 0 0 1 1.656.504c.48.192.858.462 1.134.81.276.336.414.792.414 1.368 0 .564-.162 1.062-.486 1.494-.312.42-.75.75-1.314.99-.564.228-1.206.342-1.926.342Z" fill="#fff"/></svg>