<svg width="153" height="48" viewBox="0 0 153 48" fill="none" xmlns="http://www.w3.org/2000/svg">
<rect x="1" y="1" width="151" height="46" rx="23" stroke="#012F34" stroke-width="2"/>
<path d="M37.22 30.162C35.84 30.162 34.748 29.766 33.944 28.974C33.14 28.17 32.738 27.054 32.738 25.626C32.738 24.666 32.936 23.82 33.332 23.088C33.728 22.356 34.28 21.786 34.988 21.378C35.696 20.97 36.512 20.766 37.436 20.766C38.204 20.766 38.876 20.916 39.452 21.216C40.028 21.516 40.496 21.984 40.856 22.62L39.29 23.808C39.062 23.424 38.798 23.148 38.498 22.98C38.21 22.812 37.856 22.728 37.436 22.728C36.728 22.728 36.146 22.992 35.69 23.52C35.246 24.048 35.024 24.744 35.024 25.608C35.024 26.448 35.222 27.096 35.618 27.552C36.026 27.996 36.608 28.218 37.364 28.218C37.76 28.218 38.126 28.128 38.462 27.948C38.81 27.768 39.098 27.486 39.326 27.102L40.856 28.326C40.448 28.986 39.932 29.46 39.308 29.748C38.684 30.024 37.988 30.162 37.22 30.162ZM45.9614 20.766C47.3174 20.766 48.3794 21.174 49.1474 21.99C49.9274 22.794 50.3174 23.886 50.3174 25.266C50.3174 26.202 50.1194 27.042 49.7234 27.786C49.3394 28.518 48.7934 29.1 48.0854 29.532C47.3774 29.952 46.5554 30.162 45.6194 30.162C44.2634 30.162 43.1954 29.76 42.4154 28.956C41.6474 28.152 41.2634 27.054 41.2634 25.662C41.2634 24.726 41.4554 23.892 41.8394 23.16C42.2354 22.416 42.7814 21.834 43.4774 21.414C44.1854 20.982 45.0134 20.766 45.9614 20.766ZM45.6914 28.236C46.3994 28.236 46.9694 27.966 47.4014 27.426C47.8334 26.886 48.0494 26.166 48.0494 25.266C48.0494 24.45 47.8574 23.82 47.4734 23.376C47.1014 22.932 46.5854 22.71 45.9254 22.71C45.1934 22.71 44.6114 22.98 44.1794 23.52C43.7474 24.06 43.5314 24.774 43.5314 25.662C43.5314 26.478 43.7174 27.114 44.0894 27.57C44.4734 28.014 45.0074 28.236 45.6914 28.236ZM52.2247 30V20.91H54.4207L54.3127 23.196C54.6607 22.416 55.1347 21.816 55.7347 21.396C56.3347 20.976 57.0187 20.766 57.7867 20.766C58.8067 20.766 59.5747 21.12 60.0907 21.828C60.6187 22.524 60.8767 23.526 60.8647 24.834L60.8287 30H58.6327L58.6687 25.014C58.6807 24.306 58.5667 23.766 58.3267 23.394C58.0987 23.01 57.7267 22.818 57.2107 22.818C56.8147 22.818 56.4487 22.932 56.1127 23.16C55.7767 23.388 55.4827 23.778 55.2307 24.33C54.9787 24.87 54.7807 25.608 54.6367 26.544C54.4927 27.468 54.4147 28.62 54.4027 30H52.2247ZM66.9224 30.162C65.8304 30.162 64.9784 29.862 64.3664 29.262C63.7664 28.662 63.4724 27.876 63.4844 26.904L63.5564 22.746H62.0084V20.91H63.5924L63.6104 19.038H65.8064L65.7704 20.91H68.7404V22.746H65.7524L65.6984 26.67C65.6864 27.162 65.8064 27.552 66.0584 27.84C66.3224 28.116 66.7124 28.254 67.2284 28.254C67.5044 28.254 67.7624 28.218 68.0024 28.146C68.2424 28.074 68.4944 27.942 68.7584 27.75L69.4064 29.442C69.1304 29.682 68.7764 29.862 68.3444 29.982C67.9124 30.102 67.4384 30.162 66.9224 30.162ZM78.6855 20.946V30H76.4535L76.5255 28.416C76.2015 28.968 75.7755 29.4 75.2475 29.712C74.7315 30.012 74.1375 30.162 73.4655 30.162C72.6735 30.162 72.0015 29.982 71.4495 29.622C70.8975 29.25 70.4775 28.74 70.1895 28.092C69.9015 27.444 69.7575 26.7 69.7575 25.86C69.7575 24.852 69.9555 23.97 70.3515 23.214C70.7475 22.446 71.2875 21.846 71.9715 21.414C72.6675 20.982 73.4475 20.766 74.3115 20.766C74.8875 20.766 75.3975 20.892 75.8415 21.144C76.2855 21.384 76.6275 21.708 76.8675 22.116L77.0835 20.946H78.6855ZM74.4735 22.71C73.7295 22.71 73.1355 22.992 72.6915 23.556C72.2475 24.12 72.0255 24.858 72.0255 25.77C72.0255 26.55 72.1935 27.156 72.5295 27.588C72.8655 28.02 73.3275 28.236 73.9155 28.236C74.3955 28.236 74.8275 28.098 75.2115 27.822C75.6075 27.546 75.9195 27.162 76.1475 26.67C76.3755 26.178 76.4895 25.614 76.4895 24.978C76.4895 24.27 76.3095 23.718 75.9495 23.322C75.5895 22.914 75.0975 22.71 74.4735 22.71ZM85.0677 30.162C83.6877 30.162 82.5957 29.766 81.7917 28.974C80.9877 28.17 80.5857 27.054 80.5857 25.626C80.5857 24.666 80.7837 23.82 81.1797 23.088C81.5757 22.356 82.1277 21.786 82.8357 21.378C83.5437 20.97 84.3597 20.766 85.2837 20.766C86.0517 20.766 86.7237 20.916 87.2997 21.216C87.8757 21.516 88.3437 21.984 88.7037 22.62L87.1377 23.808C86.9097 23.424 86.6457 23.148 86.3457 22.98C86.0577 22.812 85.7037 22.728 85.2837 22.728C84.5757 22.728 83.9937 22.992 83.5377 23.52C83.0937 24.048 82.8717 24.744 82.8717 25.608C82.8717 26.448 83.0697 27.096 83.4657 27.552C83.8737 27.996 84.4557 28.218 85.2117 28.218C85.6077 28.218 85.9737 28.128 86.3097 27.948C86.6577 27.768 86.9457 27.486 87.1737 27.102L88.7037 28.326C88.2957 28.986 87.7797 29.46 87.1557 29.748C86.5317 30.024 85.8357 30.162 85.0677 30.162ZM93.8345 30.162C92.7425 30.162 91.8905 29.862 91.2785 29.262C90.6785 28.662 90.3845 27.876 90.3965 26.904L90.4685 22.746H88.9205V20.91H90.5045L90.5225 19.038H92.7185L92.6825 20.91H95.6525V22.746H92.6645L92.6105 26.67C92.5985 27.162 92.7185 27.552 92.9705 27.84C93.2345 28.116 93.6245 28.254 94.1405 28.254C94.4165 28.254 94.6745 28.218 94.9145 28.146C95.1545 28.074 95.4065 27.942 95.6705 27.75L96.3185 29.442C96.0425 29.682 95.6885 29.862 95.2565 29.982C94.8245 30.102 94.3505 30.162 93.8345 30.162ZM104.552 30.162C103.544 30.162 102.782 29.82 102.266 29.136C101.762 28.452 101.516 27.504 101.528 26.292L101.564 20.91H103.76L103.724 26.094C103.712 26.718 103.82 27.21 104.048 27.57C104.276 27.93 104.636 28.11 105.128 28.11C105.512 28.11 105.866 27.996 106.19 27.768C106.526 27.54 106.814 27.156 107.054 26.616C107.294 26.064 107.48 25.326 107.612 24.402C107.756 23.466 107.828 22.302 107.828 20.91H109.952V30H107.738L107.864 27.93C107.504 28.662 107.036 29.22 106.46 29.604C105.896 29.976 105.26 30.162 104.552 30.162ZM115.475 30.162C114.227 30.162 113.273 29.928 112.613 29.46C111.953 28.98 111.569 28.314 111.461 27.462L113.315 27.012C113.387 27.468 113.597 27.822 113.945 28.074C114.293 28.314 114.791 28.434 115.439 28.434C115.967 28.434 116.363 28.35 116.627 28.182C116.903 28.014 117.041 27.786 117.041 27.498C117.041 27.21 116.891 26.988 116.591 26.832C116.303 26.676 115.853 26.538 115.241 26.418C114.557 26.286 113.969 26.118 113.477 25.914C112.997 25.71 112.625 25.434 112.361 25.086C112.109 24.726 111.983 24.258 111.983 23.682C111.983 23.13 112.139 22.638 112.451 22.206C112.763 21.762 113.189 21.414 113.729 21.162C114.281 20.898 114.911 20.766 115.619 20.766C116.567 20.766 117.341 20.988 117.941 21.432C118.553 21.876 118.919 22.446 119.039 23.142L117.221 23.628C117.137 23.28 116.957 23.01 116.681 22.818C116.405 22.614 116.033 22.512 115.565 22.512C115.097 22.512 114.737 22.608 114.485 22.8C114.245 22.992 114.125 23.232 114.125 23.52C114.125 23.808 114.263 24.036 114.539 24.204C114.827 24.36 115.313 24.51 115.997 24.654C116.633 24.786 117.185 24.954 117.653 25.158C118.133 25.35 118.511 25.62 118.787 25.968C119.063 26.304 119.201 26.76 119.201 27.336C119.201 27.9 119.039 28.398 118.715 28.83C118.403 29.25 117.965 29.58 117.401 29.82C116.837 30.048 116.195 30.162 115.475 30.162Z" fill="#012F34"/>
</svg>
